<?xml version="1.0" encoding="UTF-8" standalone="no"?>
<!DOCTYPE svg PUBLIC "-//W3C//DTD SVG 1.1//EN"
 "http://www.w3.org/Graphics/SVG/1.1/DTD/svg11.dtd">
<!-- Generated by graphviz version 2.47.3 (20210619.1520)
 -->
<!-- Title: dependencies Pages: 1 -->
<svg width="443pt" height="247pt"
 viewBox="0.00 0.00 443.00 246.80" xmlns="http://www.w3.org/2000/svg" xmlns:xlink="http://www.w3.org/1999/xlink">
<g id="graph0" class="graph" transform="scale(1 1) rotate(0) translate(4 242.8)">
<title>dependencies</title>
<polygon fill="white" stroke="transparent" points="-4,4 -4,-242.8 439,-242.8 439,4 -4,4"/>
<text text-anchor="middle" x="217.5" y="-8.2" font-family="sans-serif" font-size="14.00">dependencies</text>
<g id="clust1" class="cluster">
<title>cluster_SharedModule</title>
<polygon fill="none" stroke="black" stroke-dasharray="1,5" points="8,-32.8 8,-230.8 427,-230.8 427,-32.8 8,-32.8"/>
</g>
<g id="clust7" class="cluster">
<title>cluster_SharedModule_providers</title>
<polygon fill="none" stroke="black" points="150,-40.8 150,-92.8 419,-92.8 419,-40.8 150,-40.8"/>
</g>
<g id="clust2" class="cluster">
<title>cluster_SharedModule_declarations</title>
<polygon fill="none" stroke="black" points="16,-40.8 16,-92.8 142,-92.8 142,-40.8 16,-40.8"/>
</g>
<g id="clust5" class="cluster">
<title>cluster_SharedModule_exports</title>
<polygon fill="none" stroke="black" points="151,-170.8 151,-222.8 281,-222.8 281,-170.8 151,-170.8"/>
</g>
<!-- ErrorComponent -->
<g id="node1" class="node">
<title>ErrorComponent</title>
<polygon fill="#ffffb3" stroke="black" points="134.37,-84.8 23.63,-84.8 23.63,-48.8 134.37,-48.8 134.37,-84.8"/>
<text text-anchor="middle" x="79" y="-62.6" font-family="Times,serif" font-size="14.00">ErrorComponent</text>
</g>
<!-- SharedModule -->
<g id="node2" class="node">
<title>SharedModule</title>
<polygon fill="#8dd3c7" stroke="black" points="265.42,-149.8 262.42,-153.8 241.42,-153.8 238.42,-149.8 166.58,-149.8 166.58,-113.8 265.42,-113.8 265.42,-149.8"/>
<text text-anchor="middle" x="216" y="-127.6" font-family="Times,serif" font-size="14.00">SharedModule</text>
</g>
<!-- ErrorComponent&#45;&gt;SharedModule -->
<g id="edge1" class="edge">
<title>ErrorComponent&#45;&gt;SharedModule</title>
<path fill="none" stroke="black" d="M79,-84.91C79,-104.14 79,-131.8 79,-131.8 79,-131.8 156.54,-131.8 156.54,-131.8"/>
<polygon fill="black" stroke="black" points="156.54,-135.3 166.54,-131.8 156.54,-128.3 156.54,-135.3"/>
</g>
<!-- ErrorComponent  -->
<g id="node3" class="node">
<title>ErrorComponent </title>
<polygon fill="#fb8072" stroke="black" points="273.37,-214.8 158.63,-214.8 158.63,-178.8 273.37,-178.8 273.37,-214.8"/>
<text text-anchor="middle" x="216" y="-192.6" font-family="Times,serif" font-size="14.00">ErrorComponent </text>
</g>
<!-- SharedModule&#45;&gt;ErrorComponent  -->
<g id="edge2" class="edge">
<title>SharedModule&#45;&gt;ErrorComponent </title>
<path fill="none" stroke="black" stroke-dasharray="5,2" d="M216,-149.91C216,-149.91 216,-168.79 216,-168.79"/>
<polygon fill="black" stroke="black" points="212.5,-168.79 216,-178.79 219.5,-168.79 212.5,-168.79"/>
</g>
<!-- AuthService -->
<g id="node4" class="node">
<title>AuthService</title>
<ellipse fill="#fdb462" stroke="black" cx="352" cy="-66.8" rx="59.11" ry="18"/>
<text text-anchor="middle" x="352" y="-62.6" font-family="Times,serif" font-size="14.00">AuthService</text>
</g>
<!-- AuthService&#45;&gt;SharedModule -->
<g id="edge3" class="edge">
<title>AuthService&#45;&gt;SharedModule</title>
<path fill="none" stroke="black" d="M352,-84.91C352,-104.14 352,-131.8 352,-131.8 352,-131.8 275.48,-131.8 275.48,-131.8"/>
<polygon fill="black" stroke="black" points="275.48,-128.3 265.48,-131.8 275.48,-135.3 275.48,-128.3"/>
</g>
<!-- UserService -->
<g id="node5" class="node">
<title>UserService</title>
<ellipse fill="#fdb462" stroke="black" cx="216" cy="-66.8" rx="58.44" ry="18"/>
<text text-anchor="middle" x="216" y="-62.6" font-family="Times,serif" font-size="14.00">UserService</text>
</g>
<!-- UserService&#45;&gt;SharedModule -->
<g id="edge4" class="edge">
<title>UserService&#45;&gt;SharedModule</title>
<path fill="none" stroke="black" d="M216,-84.91C216,-84.91 216,-103.79 216,-103.79"/>
<polygon fill="black" stroke="black" points="212.5,-103.79 216,-113.79 219.5,-103.79 212.5,-103.79"/>
</g>
</g>
</svg>
