<svg xmlns="http://www.w3.org/2000/svg" version="1.1" xmlns:xlink="http://www.w3.org/1999/xlink" xmlns:svgjs="http://svgjs.com/svgjs" width="1440" height="900" preserveAspectRatio="none" viewBox="0 0 1440 900">
    <g mask="url(&quot;#SvgjsMask1054&quot;)" fill="none">
        <rect width="1440" height="1000" x="0" y="0" fill="rgba(211, 215, 219, 1)"></rect>
        <path d="M15 900L915 0L1359 0L459 900z" fill="url(#SvgjsLinearGradient1055)"></path>
        <path d="M529.2 900L1429.2 0L1607.7 0L707.7 900z" fill="url(#SvgjsLinearGradient1055)"></path>
        <path d="M1425 900L525 0L-162 0L738 900z" fill="url(#SvgjsLinearGradient1056)"></path>
        <path d="M873.8 900L-26.200000000000045 0L-351.70000000000005 0L548.3 900z" fill="url(#SvgjsLinearGradient1056)"></path>
        <path d="M971.2473025953619 900L1440 431.24730259536193L1440 900z" fill="url(#SvgjsLinearGradient1055)"></path>
        <path d="M0 900L468.75269740463807 900L 0 431.24730259536193z" fill="url(#SvgjsLinearGradient1056)"></path>
    </g>
    <defs>
        <mask id="SvgjsMask1054">
            <rect width="1440" height="900" fill="#ffffff"></rect>
        </mask>
        <linearGradient x1="0%" y1="100%" x2="100%" y2="0%" id="SvgjsLinearGradient1055">
            <stop stop-color="rgba(15, 70, 185, 0.2)" offset="0"></stop>
            <stop stop-opacity="0" stop-color="rgba(15, 70, 185, 0.2)" offset="0.66"></stop>
        </linearGradient>
        <linearGradient x1="100%" y1="100%" x2="0%" y2="0%" id="SvgjsLinearGradient1056">
            <stop stop-color="rgba(15, 70, 185, 0.2)" offset="0"></stop>
            <stop stop-opacity="0" stop-color="rgba(15, 70, 185, 0.2)" offset="0.66"></stop>
        </linearGradient>
    </defs>
</svg>