<?xml version="1.0" encoding="UTF-8" standalone="no"?>
<!DOCTYPE svg PUBLIC "-//W3C//DTD SVG 1.1//EN"
 "http://www.w3.org/Graphics/SVG/1.1/DTD/svg11.dtd">
<!-- Generated by graphviz version 2.47.3 (20210619.1520)
 -->
<!-- Title: dependencies Pages: 1 -->
<svg width="572pt" height="250pt"
 viewBox="0.00 0.00 572.00 249.80" xmlns="http://www.w3.org/2000/svg" xmlns:xlink="http://www.w3.org/1999/xlink">
<g id="graph0" class="graph" transform="scale(1 1) rotate(0) translate(4 245.8)">
<title>dependencies</title>
<polygon fill="white" stroke="transparent" points="-4,4 -4,-245.8 568,-245.8 568,4 -4,4"/>
<text text-anchor="middle" x="282" y="-8.2" font-family="sans-serif" font-size="14.00">dependencies</text>
<g id="clust1" class="cluster">
<title>cluster_AppModule</title>
<polygon fill="none" stroke="black" stroke-dasharray="1,5" points="218,-108.8 218,-233.8 442,-233.8 442,-108.8 218,-108.8"/>
</g>
<g id="clust3" class="cluster">
<title>cluster_AppModule_imports</title>
<polygon fill="none" stroke="black" points="226,-116.8 226,-168.8 434,-168.8 434,-116.8 226,-116.8"/>
</g>
<g id="clust7" class="cluster">
<title>cluster_AuthModule</title>
<polygon fill="none" stroke="black" stroke-dasharray="1,5" points="8,-32.8 8,-100.8 400,-100.8 400,-32.8 8,-32.8"/>
</g>
<g id="clust10" class="cluster">
<title>cluster_AuthModule_exports</title>
<polygon fill="none" stroke="black" points="290,-40.8 290,-92.8 392,-92.8 392,-40.8 290,-40.8"/>
</g>
<g id="clust12" class="cluster">
<title>cluster_AuthModule_providers</title>
<polygon fill="none" stroke="black" points="16,-40.8 16,-92.8 282,-92.8 282,-40.8 16,-40.8"/>
</g>
<g id="clust13" class="cluster">
<title>cluster_UserModule</title>
<polygon fill="none" stroke="black" stroke-dasharray="1,5" points="408,-32.8 408,-100.8 556,-100.8 556,-32.8 408,-32.8"/>
</g>
<g id="clust18" class="cluster">
<title>cluster_UserModule_providers</title>
<polygon fill="none" stroke="black" points="416,-40.8 416,-92.8 548,-92.8 548,-40.8 416,-40.8"/>
</g>
<!-- AuthModule -->
<g id="node1" class="node">
<title>AuthModule</title>
<polygon fill="#8dd3c7" stroke="black" points="321.55,-160.8 318.55,-164.8 297.55,-164.8 294.55,-160.8 234.45,-160.8 234.45,-124.8 321.55,-124.8 321.55,-160.8"/>
<text text-anchor="middle" x="278" y="-138.6" font-family="Times,serif" font-size="14.00">AuthModule</text>
</g>
<!-- AppModule -->
<g id="node3" class="node">
<title>AppModule</title>
<polygon fill="#8dd3c7" stroke="black" points="371.66,-225.8 368.66,-229.8 347.66,-229.8 344.66,-225.8 288.34,-225.8 288.34,-189.8 371.66,-189.8 371.66,-225.8"/>
<text text-anchor="middle" x="330" y="-203.6" font-family="Times,serif" font-size="14.00">AppModule</text>
</g>
<!-- AuthModule&#45;&gt;AppModule -->
<g id="edge1" class="edge">
<title>AuthModule&#45;&gt;AppModule</title>
<path fill="none" stroke="black" d="M304.97,-160.91C304.97,-160.91 304.97,-179.79 304.97,-179.79"/>
<polygon fill="black" stroke="black" points="301.47,-179.79 304.97,-189.79 308.47,-179.79 301.47,-179.79"/>
</g>
<!-- JwtStrategy  -->
<g id="node4" class="node">
<title>JwtStrategy </title>
<polygon fill="#fb8072" stroke="black" points="383.6,-84.8 298.4,-84.8 298.4,-48.8 383.6,-48.8 383.6,-84.8"/>
<text text-anchor="middle" x="341" y="-62.6" font-family="Times,serif" font-size="14.00">JwtStrategy </text>
</g>
<!-- AuthModule&#45;&gt;JwtStrategy  -->
<g id="edge3" class="edge">
<title>AuthModule&#45;&gt;JwtStrategy </title>
<path fill="none" stroke="black" stroke-dasharray="5,2" d="M309.99,-124.79C309.99,-124.79 309.99,-94.95 309.99,-94.95"/>
<polygon fill="black" stroke="black" points="313.49,-94.95 309.99,-84.95 306.49,-94.95 313.49,-94.95"/>
</g>
<!-- UserModule -->
<g id="node2" class="node">
<title>UserModule</title>
<polygon fill="#8dd3c7" stroke="black" points="425.98,-160.8 422.98,-164.8 401.98,-164.8 398.98,-160.8 340.02,-160.8 340.02,-124.8 425.98,-124.8 425.98,-160.8"/>
<text text-anchor="middle" x="383" y="-138.6" font-family="Times,serif" font-size="14.00">UserModule</text>
</g>
<!-- UserModule&#45;&gt;AppModule -->
<g id="edge2" class="edge">
<title>UserModule&#45;&gt;AppModule</title>
<path fill="none" stroke="black" d="M355.92,-160.91C355.92,-160.91 355.92,-179.79 355.92,-179.79"/>
<polygon fill="black" stroke="black" points="352.42,-179.79 355.92,-189.79 359.42,-179.79 352.42,-179.79"/>
</g>
<!-- AuthService -->
<g id="node5" class="node">
<title>AuthService</title>
<ellipse fill="#fdb462" stroke="black" cx="215" cy="-66.8" rx="59.11" ry="18"/>
<text text-anchor="middle" x="215" y="-62.6" font-family="Times,serif" font-size="14.00">AuthService</text>
</g>
<!-- AuthService&#45;&gt;AuthModule -->
<g id="edge4" class="edge">
<title>AuthService&#45;&gt;AuthModule</title>
<path fill="none" stroke="black" d="M254.27,-80.39C254.27,-80.39 254.27,-114.76 254.27,-114.76"/>
<polygon fill="black" stroke="black" points="250.77,-114.76 254.27,-124.76 257.77,-114.76 250.77,-114.76"/>
</g>
<!-- JwtStrategy -->
<g id="node6" class="node">
<title>JwtStrategy</title>
<ellipse fill="#fdb462" stroke="black" cx="81" cy="-66.8" rx="56.76" ry="18"/>
<text text-anchor="middle" x="81" y="-62.6" font-family="Times,serif" font-size="14.00">JwtStrategy</text>
</g>
<!-- JwtStrategy&#45;&gt;AuthModule -->
<g id="edge5" class="edge">
<title>JwtStrategy&#45;&gt;AuthModule</title>
<path fill="none" stroke="black" d="M81,-84.81C81,-107.29 81,-142.8 81,-142.8 81,-142.8 224.28,-142.8 224.28,-142.8"/>
<polygon fill="black" stroke="black" points="224.28,-146.3 234.28,-142.8 224.28,-139.3 224.28,-146.3"/>
</g>
<!-- UserService -->
<g id="node7" class="node">
<title>UserService</title>
<ellipse fill="#fdb462" stroke="black" cx="482" cy="-66.8" rx="58.44" ry="18"/>
<text text-anchor="middle" x="482" y="-62.6" font-family="Times,serif" font-size="14.00">UserService</text>
</g>
<!-- UserService&#45;&gt;UserModule -->
<g id="edge6" class="edge">
<title>UserService&#45;&gt;UserModule</title>
<path fill="none" stroke="black" d="M423.52,-66.8C412.21,-66.8 403.79,-66.8 403.79,-66.8 403.79,-66.8 403.79,-114.79 403.79,-114.79"/>
<polygon fill="black" stroke="black" points="400.29,-114.79 403.79,-124.79 407.29,-114.79 400.29,-114.79"/>
</g>
</g>
</svg>
